<svg width="24" height="24" viewBox="0 0 24 24" fill="none" xmlns="http://www.w3.org/2000/svg">
<path d="M20.3923 14.993C18.1267 17.2485 14.8824 17.9416 12.0339 17.0505L6.85391 22.2215C6.47998 22.6066 5.74312 22.8376 5.21522 22.7606L2.81768 22.4306C2.02583 22.3205 1.28898 21.5724 1.168 20.7802L0.838063 18.3817C0.761077 17.8536 1.01403 17.1165 1.37696 16.7424L6.54597 11.5713C5.66614 8.71076 6.34801 5.4651 8.61357 3.20964C11.8579 -0.0360252 17.1259 -0.0360252 20.3813 3.20964C23.6367 6.4553 23.6367 11.7474 20.3923 14.993Z" stroke="white" stroke-opacity="0.5" stroke-width="1.5" stroke-miterlimit="10" stroke-linecap="round" stroke-linejoin="round"/>
<path d="M14.5745 10.6698C15.4856 10.6698 16.2242 9.93093 16.2242 9.01948C16.2242 8.10802 15.4856 7.36914 14.5745 7.36914C13.6634 7.36914 12.9248 8.10802 12.9248 9.01948C12.9248 9.93093 13.6634 10.6698 14.5745 10.6698Z" stroke="white" stroke-opacity="0.5" stroke-width="1.5" stroke-linecap="round" stroke-linejoin="round"/>
</svg>
