<svg width="28" height="28" viewBox="0 0 28 28" fill="none" xmlns="http://www.w3.org/2000/svg">
<path d="M13.3592 15.7564C15.116 15.7564 16.5401 14.3323 16.5401 12.5755C16.5401 10.8187 15.116 9.39453 13.3592 9.39453C11.6024 9.39453 10.1782 10.8187 10.1782 12.5755C10.1782 14.3323 11.6024 15.7564 13.3592 15.7564Z" stroke="white" stroke-width="1.5" stroke-linecap="round" stroke-linejoin="round"/>
<path d="M19.2342 23.0814C19.2342 20.4438 16.6079 18.293 13.359 18.293C10.1102 18.293 7.48389 20.4325 7.48389 23.0814" stroke="white" stroke-width="1.5" stroke-linecap="round" stroke-linejoin="round"/>
<path d="M24.1586 14.3655C24.1586 20.3085 19.3476 25.1196 13.4045 25.1196C7.46145 25.1196 2.65039 20.3085 2.65039 14.3655C2.65039 8.42238 7.46145 3.61133 13.4045 3.61133C14.8875 3.61133 16.3025 3.90564 17.593 4.44901C17.4458 4.90181 17.3666 5.37727 17.3666 5.87535C17.3666 6.72436 17.6043 7.52809 18.0231 8.2073C18.2495 8.59218 18.5439 8.94308 18.8835 9.2374C19.6759 9.96189 20.7286 10.4034 21.8946 10.4034C22.3927 10.4034 22.8681 10.3241 23.3096 10.1657C23.853 11.4562 24.1586 12.8825 24.1586 14.3655Z" stroke="white" stroke-width="1.5" stroke-linecap="round" stroke-linejoin="round"/>
<path d="M26.4223 5.87571C26.4223 6.23795 26.377 6.58887 26.2865 6.92847C26.1846 7.38128 26.0035 7.82277 25.7657 8.20765C25.2224 9.12458 24.3507 9.83773 23.3093 10.166C22.8678 10.3245 22.3923 10.4038 21.8943 10.4038C20.7283 10.4038 19.6755 9.96224 18.8831 9.23775C18.5435 8.94343 18.2492 8.59254 18.0228 8.20765C17.6039 7.52844 17.3662 6.72472 17.3662 5.87571C17.3662 5.37762 17.4455 4.90217 17.5926 4.44936C17.8077 3.79279 18.1699 3.20418 18.6454 2.71742C19.4718 1.86841 20.6264 1.34766 21.8943 1.34766C23.23 1.34766 24.4413 1.925 25.2563 2.85325C25.9808 3.65698 26.4223 4.72106 26.4223 5.87571Z" stroke="white" stroke-width="1.5" stroke-miterlimit="10" stroke-linecap="round" stroke-linejoin="round"/>
<path d="M23.5814 5.85156H20.208" stroke="white" stroke-width="1.5" stroke-miterlimit="10" stroke-linecap="round" stroke-linejoin="round"/>
<path d="M21.8945 4.19922V7.58393" stroke="white" stroke-width="1.5" stroke-miterlimit="10" stroke-linecap="round" stroke-linejoin="round"/>
</svg>
