<svg width="28" height="28" viewBox="0 0 28 28" fill="none" xmlns="http://www.w3.org/2000/svg">
<path d="M24.5 6.97591C20.615 6.59091 16.7067 6.39258 12.81 6.39258C10.5 6.39258 8.19 6.50924 5.88 6.74258L3.5 6.97591" stroke="#BF0712" stroke-width="1.5" stroke-linecap="round" stroke-linejoin="round"/>
<path d="M9.91699 5.79898L10.1737 4.27065C10.3603 3.16232 10.5003 2.33398 12.472 2.33398H15.5287C17.5003 2.33398 17.652 3.20898 17.827 4.28232L18.0837 5.79898" stroke="#BF0712" stroke-width="1.5" stroke-linecap="round" stroke-linejoin="round"/>
<path d="M21.9921 10.6641L21.2338 22.4124C21.1055 24.2441 21.0005 25.6674 17.7455 25.6674H10.2555C7.00046 25.6674 6.89546 24.2441 6.76712 22.4124L6.00879 10.6641" stroke="#BF0712" stroke-width="1.5" stroke-linecap="round" stroke-linejoin="round"/>
<path d="M12.0518 19.25H15.9368" stroke="#BF0712" stroke-width="1.5" stroke-linecap="round" stroke-linejoin="round"/>
<path d="M11.083 14.584H16.9163" stroke="#BF0712" stroke-width="1.5" stroke-linecap="round" stroke-linejoin="round"/>
</svg>
