<svg width="24" height="24" viewBox="0 0 24 24" fill="none" xmlns="http://www.w3.org/2000/svg">
<path d="M11.9662 11.7897C11.9022 11.7805 11.8199 11.7805 11.7467 11.7897C10.1369 11.7348 8.85645 10.4177 8.85645 8.79883C8.85645 7.14334 10.1918 5.79883 11.8564 5.79883C13.5119 5.79883 14.8564 7.14334 14.8564 8.79883C14.8473 10.4177 13.576 11.7348 11.9662 11.7897Z" stroke="#292D32" stroke-width="1.5" stroke-linecap="round" stroke-linejoin="round"/>
<path d="M17.7031 18.5778C16.1186 20.5338 14.0177 21.7218 11.7031 21.7218C9.38859 21.7218 7.28769 20.5338 5.70312 18.5778C5.79215 17.4498 6.32627 16.3458 7.27879 15.4818C9.71796 13.2977 13.7061 13.2977 16.1275 15.4818C17.08 16.3458 17.6141 17.4498 17.7031 18.5778Z" stroke="#292D32" stroke-width="1.5" stroke-linecap="round" stroke-linejoin="round"/>
<path d="M12 22C17.5228 22 22 17.5228 22 12C22 6.47715 17.5228 2 12 2C6.47715 2 2 6.47715 2 12C2 17.5228 6.47715 22 12 22Z" stroke="#292D32" stroke-width="1.5" stroke-linecap="round" stroke-linejoin="round"/>
</svg>
