<svg width="24" height="24" viewBox="14 14 24 24" fill="none" xmlns="http://www.w3.org/2000/svg">
<g filter="url(#filter0_d_900_4659)">
<path d="M20.5714 24.3929C19.8282 24.3929 19.3101 24.3924 18.9051 24.3635C18.5073 24.3351 18.2763 24.2819 18.1002 24.2051C17.58 23.9781 17.1647 23.5629 16.9377 23.0426C16.8609 22.8666 16.8078 22.6356 16.7794 22.2377C16.7504 21.8327 16.75 21.3147 16.75 20.5714C16.75 19.8282 16.7504 19.3101 16.7794 18.9051C16.8078 18.5073 16.8609 18.2763 16.9377 18.1002C17.1647 17.58 17.58 17.1647 18.1002 16.9377C18.2763 16.8609 18.5073 16.8078 18.9051 16.7794C19.3101 16.7504 19.8282 16.75 20.5714 16.75C21.3147 16.75 21.8327 16.7504 22.2377 16.7794C22.6356 16.8078 22.8666 16.8609 23.0426 16.9377C23.5629 17.1647 23.9781 17.58 24.2051 18.1002C24.2819 18.2763 24.3351 18.5073 24.3635 18.9051C24.3924 19.3101 24.3929 19.8282 24.3929 20.5714C24.3929 21.3147 24.3924 21.8327 24.3635 22.2377C24.3351 22.6356 24.2819 22.8666 24.2051 23.0426C23.9781 23.5629 23.5629 23.9781 23.0426 24.2051C22.8666 24.2819 22.6356 24.3351 22.2377 24.3635C21.8327 24.3924 21.3147 24.3929 20.5714 24.3929Z" stroke="white" stroke-opacity="0.56" stroke-width="1.5"/>
<path d="M20.5714 35.2503C19.8282 35.2503 19.3101 35.2498 18.9051 35.2209C18.5073 35.1925 18.2763 35.1394 18.1002 35.0625C17.58 34.8356 17.1647 34.4203 16.9377 33.9C16.8609 33.724 16.8078 33.493 16.7794 33.0952C16.7504 32.6901 16.75 32.1721 16.75 31.4289C16.75 30.6856 16.7504 30.1676 16.7794 29.7625C16.8078 29.3647 16.8609 29.1337 16.9377 28.9577C17.1647 28.4374 17.58 28.0221 18.1002 27.7952C18.2763 27.7183 18.5073 27.6652 18.9051 27.6368C19.3101 27.6079 19.8282 27.6074 20.5714 27.6074C21.3147 27.6074 21.8327 27.6079 22.2377 27.6368C22.6356 27.6652 22.8666 27.7183 23.0426 27.7952C23.5629 28.0221 23.9781 28.4374 24.2051 28.9577C24.2819 29.1337 24.3351 29.3647 24.3635 29.7625C24.3924 30.1676 24.3929 30.6856 24.3929 31.4289C24.3929 32.1721 24.3924 32.6901 24.3635 33.0952C24.3351 33.493 24.2819 33.724 24.2051 33.9C23.9781 34.4203 23.5629 34.8356 23.0426 35.0625C22.8666 35.1394 22.6356 35.1925 22.2377 35.2209C21.8327 35.2498 21.3147 35.2503 20.5714 35.2503Z" stroke="white" stroke-width="1.5" stroke-opacity="0.56"/>
<path d="M31.4289 24.3929C30.6856 24.3929 30.1676 24.3924 29.7625 24.3635C29.3647 24.3351 29.1337 24.2819 28.9577 24.2051C28.4374 23.9781 28.0221 23.5629 27.7952 23.0426C27.7183 22.8666 27.6652 22.6356 27.6368 22.2377C27.6079 21.8327 27.6074 21.3147 27.6074 20.5714C27.6074 19.8282 27.6079 19.3101 27.6368 18.9051C27.6652 18.5073 27.7183 18.2763 27.7952 18.1002C28.0221 17.58 28.4374 17.1647 28.9577 16.9377C29.1337 16.8609 29.3647 16.8078 29.7625 16.7794C30.1676 16.7504 30.6856 16.75 31.4289 16.75C32.1721 16.75 32.6901 16.7504 33.0952 16.7794C33.493 16.8078 33.724 16.8609 33.9 16.9377C34.4203 17.1647 34.8356 17.58 35.0625 18.1002C35.1394 18.2763 35.1925 18.5073 35.2209 18.9051C35.2498 19.3101 35.2503 19.8282 35.2503 20.5714C35.2503 21.3147 35.2498 21.8327 35.2209 22.2377C35.1925 22.6356 35.1394 22.8666 35.0625 23.0426C34.8356 23.5629 34.4203 23.9781 33.9 24.2051C33.724 24.2819 33.493 24.3351 33.0952 24.3635C32.6901 24.3924 32.1721 24.3929 31.4289 24.3929Z" stroke="white" stroke-width="1.5" stroke-opacity="0.56"/>
<path d="M31.4289 35.2503C30.6856 35.2503 30.1676 35.2498 29.7625 35.2209C29.3647 35.1925 29.1337 35.1394 28.9577 35.0625C28.4374 34.8356 28.0221 34.4203 27.7952 33.9C27.7183 33.724 27.6652 33.493 27.6368 33.0952C27.6079 32.6901 27.6074 32.1721 27.6074 31.4289C27.6074 30.6856 27.6079 30.1676 27.6368 29.7625C27.6652 29.3647 27.7183 29.1337 27.7952 28.9577C28.0221 28.4374 28.4374 28.0221 28.9577 27.7952C29.1337 27.7183 29.3647 27.6652 29.7625 27.6368C30.1676 27.6079 30.6856 27.6074 31.4289 27.6074C32.1721 27.6074 32.6901 27.6079 33.0952 27.6368C33.493 27.6652 33.724 27.7183 33.9 27.7952C34.4203 28.0221 34.8356 28.4374 35.0625 28.9577C35.1394 29.1337 35.1925 29.3647 35.2209 29.7625C35.2498 30.1676 35.2503 30.6856 35.2503 31.4289C35.2503 32.1721 35.2498 32.6901 35.2209 33.0952C35.1925 33.493 35.1394 33.724 35.0625 33.9C34.8356 34.4203 34.4203 34.8356 33.9 35.0625C33.724 35.1394 33.493 35.1925 33.0952 35.2209C32.6901 35.2498 32.1721 35.2503 31.4289 35.2503Z" stroke="white" stroke-width="1.5" stroke-opacity="0.56"/>
</g>
<defs>
<filter id="filter0_d_900_4659" x="-2" y="-2" width="56" height="56" filterUnits="userSpaceOnUse" color-interpolation-filters="sRGB">
<feFlood flood-opacity="1" result="BackgroundImageFix"/>
<feColorMatrix in="SourceAlpha" type="matrix" values="0 0 0 0 0 0 0 0 0 0 0 0 0 0 0 0 0 0 127 0" result="hardAlpha"/>
<feOffset/>
<feGaussianBlur />
<feComposite in2="hardAlpha" operator="out"/>
<feColorMatrix type="matrix" values="0 0 0 0 1 0 0 0 0 1 0 0 0 0 1 0 0 0 1 0"/>
<feBlend mode="overlay" result="effect1_dropShadow_900_4659"/>
<feBlend mode="normal" in="SourceGraphic" in2="effect1_dropShadow_900_4659" result="shape"/>
</filter>
</defs>
</svg>
