<svg width="21" height="23" viewBox="0 0 21 23" fill="none" xmlns="http://www.w3.org/2000/svg">
<path d="M10.4665 0.753906C6.71031 0.753906 3.6577 3.37704 3.6577 6.60477V9.42293C3.6577 10.0178 3.36265 10.9247 3.01086 11.4317L1.70584 13.2943C0.900137 14.4449 1.45619 15.7224 2.93143 16.1514C7.82241 17.5556 13.0992 17.5556 17.9902 16.1514C19.3633 15.7614 19.9648 14.3669 19.2158 13.2943L17.9108 11.4317C17.5703 10.9247 17.2753 10.0178 17.2753 9.42293V6.60477C17.2753 3.38679 14.2113 0.753906 10.4665 0.753906Z" stroke="white" stroke-opacity="0.5" stroke-width="1.5" stroke-miterlimit="10" stroke-linecap="round"/>
<path d="M13.8713 18.4531C13.8713 20.0621 12.3393 21.3786 10.4669 21.3786C9.53636 21.3786 8.67391 21.047 8.06112 20.5204C7.44833 19.9939 7.0625 19.2527 7.0625 18.4531" stroke="white" stroke-opacity="0.5" stroke-width="1.5" stroke-miterlimit="10"/>
</svg>
