<svg width="24" height="21" viewBox="0 0 24 21" fill="none" xmlns="http://www.w3.org/2000/svg">
<path d="M15.9216 10.7518C15.9216 12.9932 14.1104 14.8044 11.869 14.8044C9.62763 14.8044 7.81641 12.9932 7.81641 10.7518C7.81641 8.51044 9.62763 6.69922 11.869 6.69922C14.1104 6.69922 15.9216 8.51044 15.9216 10.7518Z" stroke="#292D32" stroke-width="1.5" stroke-linecap="round" stroke-linejoin="round"/>
<path d="M11.8687 20.1157C15.8647 20.1157 19.5891 17.7611 22.1814 13.6858C23.2002 12.0897 23.2002 9.40683 22.1814 7.81069C19.5891 3.73545 15.8647 1.38086 11.8687 1.38086C7.87273 1.38086 4.14841 3.73545 1.5561 7.81069C0.537289 9.40683 0.537289 12.0897 1.5561 13.6858C4.14841 17.7611 7.87273 20.1157 11.8687 20.1157Z" stroke="#292D32" stroke-width="1.5" stroke-linecap="round" stroke-linejoin="round"/>
</svg>
