<svg width="24" height="24" viewBox="0 0 24 24" fill="none" xmlns="http://www.w3.org/2000/svg">
<path d="M15.6603 11.8424C15.6603 13.718 14.1447 15.2336 12.2691 15.2336C10.3936 15.2336 8.87793 13.718 8.87793 11.8424C8.87793 9.9668 10.3936 8.45117 12.2691 8.45117C14.1447 8.45117 15.6603 9.9668 15.6603 11.8424Z" stroke="#292D32" stroke-width="1.5" stroke-linecap="round" stroke-linejoin="round"/>
<path d="M12.269 19.6772C15.6128 19.6772 18.7293 17.7069 20.8986 14.2968C21.7511 12.9611 21.7511 10.7161 20.8986 9.38046C18.7293 5.97031 15.6128 4 12.269 4C8.92514 4 5.80864 5.97031 3.6394 9.38046C2.78687 10.7161 2.78687 12.9611 3.6394 14.2968C5.80864 17.7069 8.92514 19.6772 12.269 19.6772Z" stroke="#292D32" stroke-width="1.5" stroke-linecap="round" stroke-linejoin="round"/>
</svg>
