<svg width="25" height="20" viewBox="0 0 25 20" fill="none" xmlns="http://www.w3.org/2000/svg">
<path stroke-opacity="0.5" d="M18.1143 18.7539H7.11426C2.71426 18.7539 1.61426 17.7539 1.61426 13.7539V5.75391C1.61426 1.75391 2.71426 0.753906 7.11426 0.753906H18.1143C22.5143 0.753906 23.6143 1.75391 23.6143 5.75391V13.7539C23.6143 17.7539 22.5143 18.7539 18.1143 18.7539Z" stroke="white" stroke-width="1.5" stroke-linecap="round" stroke-linejoin="round"/>
<path stroke-opacity="0.5" d="M14.8145 5.75586H20.3145" stroke="white" stroke-width="1.5" stroke-linecap="round" stroke-linejoin="round"/>
<path stroke-opacity="0.5" d="M15.915 9.75586H20.315" stroke="white" stroke-width="1.5" stroke-linecap="round" stroke-linejoin="round"/>
<path stroke-opacity="0.5" d="M18.1152 13.752H20.3152" stroke="white" stroke-width="1.5" stroke-linecap="round" stroke-linejoin="round"/>
<path stroke-opacity="0.5" d="M8.76444 9.04383C9.86404 9.04383 10.7554 8.23346 10.7554 7.23383C10.7554 6.23419 9.86404 5.42383 8.76444 5.42383C7.66484 5.42383 6.77344 6.23419 6.77344 7.23383C6.77344 8.23346 7.66484 9.04383 8.76444 9.04383Z" stroke="white" stroke-width="1.5" stroke-linecap="round" stroke-linejoin="round"/>
<path stroke-opacity="0.5" d="M12.615 14.0837C12.461 12.6337 11.196 11.4937 9.60104 11.3637C9.05104 11.3137 8.49004 11.3137 7.92904 11.3637C6.33404 11.5037 5.06904 12.6337 4.91504 14.0837" stroke="white" stroke-width="1.5" stroke-linecap="round" stroke-linejoin="round"/>
</svg>
