<svg width="52" height="42" viewBox="0 0 52 42" fill="none" xmlns="http://www.w3.org/2000/svg">
<ellipse cx="11.143" cy="36.1337" rx="5.86631" ry="3.71431" transform="rotate(-90 11.143 36.1337)" fill="black"/>
<ellipse cx="48.2856" cy="20.7665" rx="5.86631" ry="3.71431" transform="rotate(-90 48.2856 20.7665)" fill="black"/>
<ellipse cx="3.71431" cy="20.7665" rx="5.86631" ry="3.71431" transform="rotate(-90 3.71431 20.7665)" fill="black"/>
<ellipse cx="11.143" cy="5.86611" rx="5.86631" ry="3.71431" transform="rotate(-90 11.143 5.86611)" fill="black"/>
<ellipse cx="26" cy="5.86611" rx="5.86631" ry="3.71431" transform="rotate(-90 26 5.86611)" fill="black"/>
<ellipse cx="40.8574" cy="5.86611" rx="5.86631" ry="3.71431" transform="rotate(-90 40.8574 5.86611)" fill="black"/>
<ellipse cx="40.8574" cy="36.1337" rx="5.86631" ry="3.71431" transform="rotate(-90 40.8574 36.1337)" fill="black"/>
<ellipse cx="33.4287" cy="20.7665" rx="5.86631" ry="3.71431" transform="rotate(-90 33.4287 20.7665)" fill="black"/>
<ellipse cx="26" cy="36.1337" rx="5.86631" ry="3.71431" transform="rotate(-90 26 36.1337)" fill="black"/>
<ellipse cx="18.5717" cy="20.7665" rx="5.86631" ry="3.71431" transform="rotate(-90 18.5717 20.7665)" fill="black"/>
</svg>
