<svg width="45" height="45" viewBox="0 0 45 45" fill="none" xmlns="http://www.w3.org/2000/svg">
<path d="M20.5263 2.76367H16.579C6.71055 2.76367 2.76318 6.71105 2.76318 16.5795V28.4216C2.76318 38.29 6.71055 42.2373 16.579 42.2373H28.4211C38.2895 42.2373 42.2368 38.29 42.2368 28.4216V24.4742" stroke="#292D32" stroke-width="3" stroke-linecap="round" stroke-linejoin="round"/>
<path d="M30.4735 4.77659L14.9209 20.3292C14.3288 20.9213 13.7367 22.0857 13.6183 22.9345L12.7696 28.8753C12.4538 31.0265 13.9735 32.5266 16.1249 32.2305L22.0656 31.3818C22.8946 31.2634 24.0591 30.6713 24.6709 30.0792L40.2236 14.5266C42.9077 11.8424 44.1709 8.72395 40.2236 4.77659C36.2761 0.829215 33.1578 2.09237 30.4735 4.77659Z" stroke="#292D32" stroke-width="3" stroke-miterlimit="10" stroke-linecap="round" stroke-linejoin="round"/>
<path d="M28.2437 7.00586C29.5661 11.723 33.2568 15.4137 37.9936 16.7558" stroke="#292D32" stroke-width="3" stroke-miterlimit="10" stroke-linecap="round" stroke-linejoin="round"/>
</svg>
