<svg width="62" height="65" viewBox="0 0 62 65" fill="none" xmlns="http://www.w3.org/2000/svg">
<g filter="url(#filter0_d_837_3657)">
<path d="M17.75 23.1504L31 30.8254L44.15 23.2004" stroke="#292D32" stroke-width="3" stroke-linecap="round" stroke-linejoin="round"/>
<path d="M31 44.4258V30.8008" stroke="#292D32" stroke-width="3" stroke-linecap="round" stroke-linejoin="round"/>
<path d="M27.9001 15.7246L19.9001 20.1746C18.1001 21.1746 16.6001 23.6996 16.6001 25.7746V34.2496C16.6001 36.3246 18.0751 38.8496 19.9001 39.8496L27.9001 44.2996C29.6001 45.2496 32.4001 45.2496 34.1251 44.2996L42.1252 39.8496C43.9252 38.8496 45.4251 36.3246 45.4251 34.2496V25.7496C45.4251 23.6746 43.9502 21.1496 42.1252 20.1496L34.1251 15.6996C32.4001 14.7496 29.6001 14.7496 27.9001 15.7246Z" stroke="#292D32" stroke-width="3" stroke-linecap="round" stroke-linejoin="round"/>
<path d="M56 37.5C56 47.175 48.175 55 38.5 55L41.125 50.625" stroke="#292D32" stroke-width="3" stroke-linecap="round" stroke-linejoin="round"/>
<path d="M6 22.5C6 12.825 13.825 5 23.5 5L20.875 9.375" stroke="#292D32" stroke-width="3" stroke-linecap="round" stroke-linejoin="round"/>
</g>
<defs>
<filter id="filter0_d_837_3657" x="-3" y="0" width="68" height="68" filterUnits="userSpaceOnUse" color-interpolation-filters="sRGB">
<feFlood flood-opacity="0" result="BackgroundImageFix"/>
<feColorMatrix in="SourceAlpha" type="matrix" values="0 0 0 0 0 0 0 0 0 0 0 0 0 0 0 0 0 0 127 0" result="hardAlpha"/>
<feOffset dy="4"/>
<feGaussianBlur stdDeviation="2"/>
<feComposite in2="hardAlpha" operator="out"/>
<feColorMatrix type="matrix" values="0 0 0 0 0 0 0 0 0 0 0 0 0 0 0 0 0 0 0.25 0"/>
<feBlend mode="normal" in2="BackgroundImageFix" result="effect1_dropShadow_837_3657"/>
<feBlend mode="normal" in="SourceGraphic" in2="effect1_dropShadow_837_3657" result="shape"/>
</filter>
</defs>
</svg>
