<svg width="28" height="28" viewBox="0 0 28 28" fill="none" xmlns="http://www.w3.org/2000/svg">
<path d="M5.66002 11.3203C4.41481 11.3203 3.396 12.3391 3.396 13.5843C3.396 14.8296 4.41481 15.8484 5.66002 15.8484C6.90524 15.8484 7.92405 14.8296 7.92405 13.5843C7.92405 12.3391 6.90524 11.3203 5.66002 11.3203Z" stroke="#292D32" stroke-width="1.5"/>
<path d="M21.5082 11.3203C20.263 11.3203 19.2441 12.3391 19.2441 13.5843C19.2441 14.8296 20.263 15.8484 21.5082 15.8484C22.7534 15.8484 23.7722 14.8296 23.7722 13.5843C23.7722 12.3391 22.7534 11.3203 21.5082 11.3203Z" stroke="#292D32" stroke-width="1.5"/>
<path d="M13.5843 11.3203C12.3391 11.3203 11.3203 12.3391 11.3203 13.5843C11.3203 14.8296 12.3391 15.8484 13.5843 15.8484C14.8296 15.8484 15.8484 14.8296 15.8484 13.5843C15.8484 12.3391 14.8296 11.3203 13.5843 11.3203Z" stroke="#292D32" stroke-width="1.5"/>
</svg>
