<svg width="20" height="20" viewBox="0 0 20 20" fill="none" xmlns="http://www.w3.org/2000/svg">
<path d="M17.5 4.98503C14.725 4.71003 11.9333 4.56836 9.15 4.56836C7.5 4.56836 5.85 4.65169 4.2 4.81836L2.5 4.98503" stroke="black" stroke-width="1.5" stroke-linecap="round" stroke-linejoin="round"/>
<path d="M7.08276 4.14102L7.2661 3.04935C7.39943 2.25768 7.49943 1.66602 8.90776 1.66602H11.0911C12.4994 1.66602 12.6078 2.29102 12.7328 3.05768L12.9161 4.14102" stroke="black" stroke-width="1.5" stroke-linecap="round" stroke-linejoin="round"/>
<path d="M15.7079 7.61719L15.1663 16.0089C15.0746 17.3172 14.9996 18.3339 12.6746 18.3339H7.32459C4.99959 18.3339 4.92459 17.3172 4.83293 16.0089L4.29126 7.61719" stroke="black" stroke-width="1.5" stroke-linecap="round" stroke-linejoin="round"/>
<path d="M8.60767 13.75H11.3827" stroke="black" stroke-width="1.5" stroke-linecap="round" stroke-linejoin="round"/>
<path d="M7.91724 10.416H12.0839" stroke="black" stroke-width="1.5" stroke-linecap="round" stroke-linejoin="round"/>
</svg>
