<svg width="47" height="43" viewBox="0 0 47 43" fill="none" xmlns="http://www.w3.org/2000/svg">
<path d="M23.8413 9.57865C23.7423 9.92471 23.9297 10.2958 24.2729 10.4025L24.3687 10.4322L24.3746 10.4251C24.6875 10.4685 24.986 10.2677 25.0752 9.95409C25.8604 7.20451 28.3319 5.28953 31.0785 5.28953C31.4395 5.28953 31.7219 4.98623 31.7219 4.62543C31.7219 4.26462 31.4395 3.96133 31.0785 3.96133C27.6448 3.96133 24.7652 6.34344 23.8413 9.57865ZM23.8413 9.57865L23.9855 9.61992M23.8413 9.57865C23.8413 9.57867 23.8413 9.5787 23.8413 9.57873L23.9855 9.61992M23.9855 9.61992C23.9077 9.89203 24.0564 10.1781 24.3175 10.2592L23.9855 9.61992Z" fill="#FFB800" stroke="#F9FFF9" stroke-width="0.3"/>
<path d="M37.9845 29.8162H35.0248C34.7524 29.8162 34.5315 29.586 34.5315 29.3021C34.5315 29.0183 34.7524 28.788 35.0248 28.788H37.9845C42.0645 28.788 45.3841 25.3285 45.3841 21.0766C45.3841 16.8247 42.0645 13.3651 37.9845 13.3651H37.9134C37.7703 13.3651 37.6343 13.3005 37.5406 13.1878C37.4469 13.075 37.4046 12.9256 37.425 12.778C37.4691 12.4578 37.4912 12.1361 37.4912 11.8229C37.4912 8.1379 34.6142 5.13956 31.0783 5.13956C29.7027 5.13956 28.3908 5.58756 27.2844 6.43544C27.0413 6.62162 26.696 6.539 26.5554 6.26028C23.4219 0.0419433 15.2375 -0.793116 10.9943 4.6163C9.20682 6.8952 8.5045 9.85969 9.06728 12.749C9.12929 13.0681 8.89497 13.3655 8.58384 13.3655H8.38617C4.30624 13.3655 0.986651 16.8251 0.986651 21.077C0.986651 25.3289 4.30624 28.7884 8.38617 28.7884H11.3459C11.6183 28.7884 11.8392 29.0187 11.8392 29.3025C11.8392 29.5864 11.6183 29.8166 11.3459 29.8166H8.38617C3.76214 29.8166 0 25.8959 0 21.0769C0 16.3932 3.55385 12.558 7.99892 12.3465C7.58138 9.34888 8.37983 6.32526 10.2304 3.9656C14.7733 -1.82642 23.4795 -1.17721 27.1599 5.28132C28.3339 4.51421 29.6774 4.11178 31.0781 4.11178C35.3621 4.11178 38.7567 7.91171 38.4597 12.3513C42.8638 12.6087 46.3705 16.4236 46.3705 21.0766C46.3705 25.8959 42.6084 29.8162 37.9843 29.8162L37.9845 29.8162Z" fill="#FFB800"/>
<path d="M10.6366 29.0127C10.6366 36.1766 16.2305 42.0153 23.1193 42.0153C30.0082 42.0153 35.602 36.1765 35.602 29.0127C35.602 21.8488 30.0082 16.0102 23.1193 16.0102C16.2304 16.0102 10.6366 21.8489 10.6366 29.0127ZM11.9235 29.0127C11.9235 22.5699 16.9518 17.3386 23.1193 17.3386C29.2867 17.3386 34.3152 22.5698 34.3152 29.0127C34.3152 35.4555 29.2867 40.6868 23.1193 40.6868C16.9519 40.6868 11.9235 35.4556 11.9235 29.0127Z" fill="#FFB800" stroke="#F9FFF9" stroke-width="0.3"/>
<path d="M22.8334 34.1857C22.8334 34.4705 23.0565 34.7121 23.3446 34.7121C23.6325 34.7121 23.8557 34.4708 23.8557 34.1857V24.3998C23.8557 24.1151 23.6326 23.8734 23.3446 23.8734C23.0565 23.8734 22.8334 24.1151 22.8334 24.3998V34.1857Z" fill="#FFB800" stroke="#FFB800" stroke-width="0.3"/>
<path d="M23.3447 25.1488L25.8703 27.7809C25.9694 27.8842 26.1013 27.9372 26.2338 27.9372L23.3447 25.1488ZM23.3447 25.1488L20.8192 27.7808L20.8191 27.7809L20.7108 27.677L23.3447 25.1488ZM23.7083 24.0299C23.5082 23.8214 23.181 23.8212 22.981 24.0299L26.2339 27.9372C26.3661 27.9372 26.4981 27.8847 26.5976 27.7808C26.7943 27.5757 26.7942 27.2459 26.5975 27.0409L23.7083 24.0299Z" fill="#FFB800" stroke="#FFB800" stroke-width="0.3"/>
</svg>
